<svg xmlns="http://www.w3.org/2000/svg" width="215" height="24" viewBox="0 0 215 24" fill="none">
    <script xmlns="" type="text/javascript" charset="utf-8" id="zm-extension"/>
        <path d="M0 24V0H8.2257C10.1355 0 11.6967 0.339844 12.9091 1.01953C14.1295 1.69141 15.0329 2.60156 15.6193 3.75C16.2057 4.89844 16.499 6.17969 16.499 7.59375C16.499 9.00781 16.2057 10.293 15.6193 11.4492C15.0408 12.6055 14.1454 13.5273 12.9329 14.2148C11.7204 14.8945 10.1672 15.2344 8.27325 15.2344H2.37737V12.6563H8.17815C9.48571 12.6563 10.5357 12.4336 11.3282 11.9883C12.1206 11.543 12.6952 10.9414 13.0518 10.1836C13.4163 9.41797 13.5986 8.55469 13.5986 7.59375C13.5986 6.63281 13.4163 5.77344 13.0518 5.01562C12.6952 4.25781 12.1167 3.66406 11.3163 3.23438C10.5159 2.79688 9.45401 2.57813 8.13061 2.57813H2.94794V24H0Z" fill="white"/>
        <path d="M19.7619 24H16.6713L25.6102 0H28.6533L37.5922 24H34.5016L27.2268 3.79687H27.0366L19.7619 24ZM20.903 14.625H33.3605V17.2031H20.903V14.625Z" fill="white"/>
        <path d="M41.3841 24V0H49.6098C51.5117 0 53.0728 0.320312 54.2932 0.960937C55.5136 1.59375 56.417 2.46484 57.0034 3.57422C57.5898 4.68359 57.883 5.94531 57.883 7.35938C57.883 8.77344 57.5898 10.0273 57.0034 11.1211C56.417 12.2148 55.5175 13.0742 54.3051 13.6992C53.0926 14.3164 51.5434 14.625 49.6573 14.625H43.0007V12H49.5622C50.8619 12 51.9079 11.8125 52.7004 11.4375C53.5007 11.0625 54.0792 10.5313 54.4358 9.84375C54.8004 9.14844 54.9826 8.32031 54.9826 7.35938C54.9826 6.39844 54.8004 5.55859 54.4358 4.83984C54.0713 4.12109 53.4889 3.56641 52.6885 3.17578C51.8881 2.77734 50.8302 2.57813 49.5147 2.57813H44.332V24H41.3841ZM52.843 13.2188L58.834 24H55.4106L49.5147 13.2188H52.843Z" fill="white"/>
        <path d="M62.7953 24V0H65.7432V11.9063H66.0285L76.9644 0H80.8157L70.593 10.8281L80.8157 24H77.2497L68.7862 12.8438L65.7432 16.2188V24H62.7953Z" fill="white"/>
        <path d="M94.0458 0H97.5643L105.838 19.9219H106.123L114.396 0H117.915V24H115.157V5.76563H114.919L107.312 24H104.649L97.0413 5.76563H96.8035V24H94.0458V0Z" fill="white"/>
        <path d="M150.659 24V0H159.17C160.866 0 162.265 0.289063 163.366 0.867188C164.468 1.4375 165.288 2.20703 165.827 3.17578C166.366 4.13672 166.635 5.20312 166.635 6.375C166.635 7.40625 166.449 8.25781 166.077 8.92969C165.712 9.60156 165.229 10.1328 164.626 10.5234C164.032 10.9141 163.386 11.2031 162.689 11.3906V11.625C163.434 11.6719 164.183 11.9297 164.936 12.3984C165.688 12.8672 166.318 13.5391 166.826 14.4141C167.333 15.2891 167.586 16.3594 167.586 17.625C167.586 18.8281 167.309 19.9102 166.754 20.8711C166.2 21.832 165.324 22.5938 164.127 23.1563C162.931 23.7188 161.373 24 159.456 24H150.659ZM153.607 21.4219H159.456C161.381 21.4219 162.748 21.0547 163.557 20.3203C164.373 19.5781 164.781 18.6797 164.781 17.625C164.781 16.8125 164.571 16.0625 164.151 15.375C163.731 14.6797 163.133 14.125 162.356 13.7109C161.579 13.2891 160.66 13.0781 159.598 13.0781H153.607V21.4219ZM153.607 10.5469H159.075C159.963 10.5469 160.763 10.375 161.476 10.0313C162.198 9.6875 162.768 9.20313 163.188 8.57813C163.616 7.95313 163.83 7.21875 163.83 6.375C163.83 5.32031 163.458 4.42578 162.713 3.69141C161.968 2.94922 160.787 2.57813 159.17 2.57813H153.607V10.5469Z" fill="white"/>
        <path d="M175.378 0V24H172.43V0H175.378Z" fill="white"/>
        <path d="M181.289 24V0H184.237V21.4219H195.553V24H181.289Z" fill="white"/>
        <path d="M200.118 24V0H214.81V2.57813H203.066V10.6875H214.049V13.2656H203.066V21.4219H215V24H200.118Z" fill="white"/>
        <g clip-path="url(#clip0_43_1427)">
            <path d="M142.061 7.98314C140.119 8.02098 138.382 8.39301 136.667 6.64003C134.107 4.02632 129.312 4.43304 126.918 7.05621C124.053 10.1964 124.032 14.623 126.864 17.8358C129.321 20.6229 133.729 20.8404 136.748 18.3213C138.491 16.8647 139.529 16.6345 141.967 17.1674C141.229 20.4526 136.446 24.7121 130.485 23.8987C125.342 23.1956 121.046 18.2803 121 12.7692C120.952 7.00261 124.952 1.87293 130.08 1.12571C135.481 0.334343 140.881 3.35792 142.061 7.98314Z" fill="#87A08B"/>
            <path d="M146.006 10.4964C146.006 11.9593 146.006 13.0943 146.006 14.428C143.098 14.428 140.257 14.4532 137.416 14.3902C137.129 14.3838 136.657 13.8825 136.605 13.5546C136.484 12.7917 136.518 11.9877 136.602 11.2152C136.63 10.9536 137.002 10.5279 137.22 10.5248C140.115 10.4806 143.011 10.4964 146.006 10.4964Z" fill="#87A08B"/>
        </g>
        <defs>
            <clipPath id="clip0_43_1427">
                <rect width="25" height="23" fill="white" transform="translate(121 1)"/>
            </clipPath>
        </defs>
    <script xmlns=""/>
</svg>